<svg width="2015" height="711" viewBox="0 0 2015 711" fill="none" xmlns="http://www.w3.org/2000/svg">
<mask id="path-1-inside-1_73_27" fill="white">
<path d="M589.5 72.3721L569.756 114.523V229.843L608.539 256.883H712.9V287.944C806.533 288.593 1904.86 296.48 1926.89 309.5C1949.91 323.1 2015 338.3 2015 356.7C2015 375.1 1941.36 391.1 1926.89 404.7C1913.04 417.722 806.882 422.674 712.9 423.071V453.322H608.539L571.166 482.748L569.756 601.248L590.205 645.785L580.333 657.715H481.613L471.036 645.785L495.011 601.248L493.868 404.014H95.2637C85.1474 414.856 71.4683 421.51 56.4111 421.51C25.2561 421.51 0 393.024 0 357.886C8.04278e-05 322.747 25.2562 294.262 56.4111 294.262C71.4687 294.262 85.1483 300.916 95.2646 311.759H493.333L492.19 114.523L471.741 72.3721L480.203 55.6709H580.333L589.5 72.3721Z"/>
</mask>
<path d="M589.5 72.3721L569.756 114.523V229.843L608.539 256.883H712.9V287.944C806.533 288.593 1904.86 296.48 1926.89 309.5C1949.91 323.1 2015 338.3 2015 356.7C2015 375.1 1941.36 391.1 1926.89 404.7C1913.04 417.722 806.882 422.674 712.9 423.071V453.322H608.539L571.166 482.748L569.756 601.248L590.205 645.785L580.333 657.715H481.613L471.036 645.785L495.011 601.248L493.868 404.014H95.2637C85.1474 414.856 71.4683 421.51 56.4111 421.51C25.2561 421.51 0 393.024 0 357.886C8.04278e-05 322.747 25.2562 294.262 56.4111 294.262C71.4687 294.262 85.1483 300.916 95.2646 311.759H493.333L492.19 114.523L471.741 72.3721L480.203 55.6709H580.333L589.5 72.3721Z" fill="black"/>
<path d="M589.5 72.3721L602.178 78.3106L605.195 71.8702L601.773 65.6357L589.5 72.3721ZM569.756 114.523L557.078 108.585L555.756 111.407V114.523H569.756ZM569.756 229.843H555.756V237.149L561.749 241.327L569.756 229.843ZM608.539 256.883L600.532 268.367L604.14 270.883H608.539V256.883ZM712.9 256.883H726.9V242.883H712.9V256.883ZM712.9 287.944H698.9V301.848L712.803 301.944L712.9 287.944ZM1926.89 309.5L1919.77 321.553L1919.77 321.553L1926.89 309.5ZM2015 356.7L2029 356.701V356.7H2015ZM1926.89 404.7L1917.3 394.5L1917.3 394.5L1926.89 404.7ZM712.9 423.071L712.841 409.071L698.9 409.13V423.071H712.9ZM712.9 453.322V467.322H726.9V453.322H712.9ZM608.539 453.322V439.322H603.689L599.878 442.323L608.539 453.322ZM571.166 482.748L562.505 471.748L557.247 475.889L557.167 482.581L571.166 482.748ZM569.756 601.248L555.757 601.081L555.719 604.229L557.033 607.09L569.756 601.248ZM590.205 645.785L600.991 654.711L606.598 647.935L602.928 639.943L590.205 645.785ZM580.333 657.715V671.715H586.92L591.119 666.64L580.333 657.715ZM481.613 657.715L471.138 667.003L475.316 671.715H481.613V657.715ZM471.036 645.785L458.709 639.149L454.075 647.758L460.561 655.073L471.036 645.785ZM495.011 601.248L507.338 607.884L509.031 604.739L509.011 601.167L495.011 601.248ZM493.868 404.014L507.868 403.933L507.787 390.014H493.868V404.014ZM95.2637 404.014V390.014H89.1786L85.0273 394.463L95.2637 404.014ZM56.4111 421.51L56.4111 435.51H56.4111V421.51ZM0 357.886L-14 357.886V357.886H0ZM56.4111 294.262L56.4111 280.262L56.4111 280.262L56.4111 294.262ZM95.2646 311.759L85.0281 321.309L89.1794 325.759H95.2646V311.759ZM493.333 311.759V325.759H507.414L507.333 311.678L493.333 311.759ZM492.19 114.523L506.19 114.442L506.172 111.268L504.786 108.413L492.19 114.523ZM471.741 72.3721L459.253 66.0446L456.115 72.2371L459.145 78.4828L471.741 72.3721ZM480.203 55.6709V41.6709H471.602L467.715 49.3434L480.203 55.6709ZM580.333 55.6709L592.606 48.9346L588.619 41.6709H580.333V55.6709ZM589.5 72.3721L576.822 66.4335L557.078 108.585L569.756 114.523L582.434 120.462L602.178 78.3106L589.5 72.3721ZM569.756 114.523H555.756V229.843H569.756H583.756V114.523H569.756ZM569.756 229.843L561.749 241.327L600.532 268.367L608.539 256.883L616.546 245.399L577.763 218.358L569.756 229.843ZM608.539 256.883V270.883H712.9V256.883V242.883H608.539V256.883ZM712.9 256.883H698.9V287.944H712.9H726.9V256.883H712.9ZM712.9 287.944L712.803 301.944C759.613 302.268 1057.57 304.402 1346.57 308.082C1491.08 309.922 1633.3 312.148 1740.74 314.726C1794.48 316.016 1839.44 317.392 1871.61 318.848C1887.72 319.577 1900.48 320.32 1909.5 321.071C1914.02 321.448 1917.41 321.812 1919.72 322.149C1920.89 322.319 1921.58 322.452 1921.9 322.528C1922.67 322.706 1921.43 322.531 1919.77 321.553L1926.89 309.5L1934.02 297.447C1931.67 296.062 1929.22 295.483 1928.26 295.259C1926.86 294.933 1925.31 294.667 1923.75 294.44C1920.61 293.983 1916.57 293.563 1911.82 293.168C1902.28 292.372 1889.09 291.61 1872.88 290.877C1840.4 289.407 1795.21 288.025 1741.42 286.734C1633.8 284.152 1491.46 281.924 1346.93 280.084C1057.84 276.403 759.82 274.269 712.997 273.945L712.9 287.944ZM1926.89 309.5L1919.77 321.553C1926.65 325.616 1936.05 329.485 1945.3 333.076C1955.07 336.868 1964.82 340.404 1974.3 344.266C1983.75 348.118 1991.55 351.752 1996.81 355.193C1999.44 356.913 2000.8 358.179 2001.38 358.878C2001.93 359.545 2001 358.736 2001 356.7H2015H2029C2029 350.064 2026.04 344.755 2022.94 341.017C2019.87 337.309 2015.96 334.262 2012.13 331.757C2004.47 326.748 1994.55 322.283 1984.86 318.334C1975.19 314.396 1964.34 310.432 1955.43 306.974C1946.01 303.315 1938.65 300.184 1934.02 297.447L1926.89 309.5ZM2015 356.7L2001 356.7C2001 354.119 2002.3 353.146 2001.49 354.022C2000.73 354.847 1999.07 356.232 1996.04 358.062C1990 361.703 1981.31 365.49 1971.22 369.482C1961.74 373.232 1950.36 377.411 1941.41 381.115C1936.78 383.032 1932.28 385.026 1928.35 387.079C1924.6 389.037 1920.52 391.478 1917.3 394.5L1926.89 404.7L1936.48 414.9C1936.89 414.522 1938.27 413.488 1941.31 411.897C1944.18 410.399 1947.81 408.768 1952.12 406.986C1961.05 403.29 1970.78 399.769 1981.52 395.518C1991.65 391.51 2002.28 386.997 2010.5 382.039C2014.59 379.569 2018.8 376.578 2022.12 372.954C2025.4 369.379 2029 363.881 2029 356.701L2015 356.7ZM1926.89 404.7L1917.3 394.5C1919.01 392.893 1920.66 392.218 1920.96 392.091C1921.26 391.968 1921.48 391.891 1921.6 391.851C1921.73 391.809 1921.8 391.789 1921.82 391.785C1921.83 391.782 1921.71 391.812 1921.43 391.869C1921.15 391.924 1920.78 391.99 1920.3 392.066C1918.28 392.381 1915.16 392.731 1910.83 393.098C1902.23 393.825 1889.82 394.536 1874 395.225C1842.4 396.601 1797.81 397.861 1744.28 399.012C1637.24 401.312 1494.8 403.163 1349.81 404.621C1059.83 407.536 759.826 408.873 712.841 409.071L712.9 423.071L712.96 437.071C759.956 436.872 1060.03 435.535 1350.09 432.619C1495.11 431.162 1637.68 429.309 1744.88 427.005C1798.47 425.854 1843.3 424.588 1875.22 423.199C1891.15 422.505 1904.01 421.775 1913.19 420.998C1917.74 420.613 1921.63 420.197 1924.62 419.729C1926.09 419.5 1927.65 419.212 1929.09 418.824C1929.8 418.632 1930.76 418.344 1931.78 417.917C1932.56 417.588 1934.56 416.711 1936.48 414.9L1926.89 404.7ZM712.9 423.071H698.9V453.322H712.9H726.9V423.071H712.9ZM712.9 453.322V439.322H608.539V453.322V467.322H712.9V453.322ZM608.539 453.322L599.878 442.323L562.505 471.748L571.166 482.748L579.827 493.748L617.2 464.322L608.539 453.322ZM571.166 482.748L557.167 482.581L555.757 601.081L569.756 601.248L583.755 601.415L585.165 482.915L571.166 482.748ZM569.756 601.248L557.033 607.09L577.482 651.627L590.205 645.785L602.928 639.943L582.479 595.406L569.756 601.248ZM590.205 645.785L579.419 636.86L569.547 648.789L580.333 657.715L591.119 666.64L600.991 654.711L590.205 645.785ZM580.333 657.715V643.715H481.613V657.715V671.715H580.333V657.715ZM481.613 657.715L492.089 648.427L481.512 636.497L471.036 645.785L460.561 655.073L471.138 667.003L481.613 657.715ZM471.036 645.785L483.364 652.421L507.338 607.884L495.011 601.248L482.683 594.612L458.709 639.149L471.036 645.785ZM495.011 601.248L509.011 601.167L507.868 403.933L493.868 404.014L479.868 404.095L481.011 601.329L495.011 601.248ZM493.868 404.014V390.014H95.2637V404.014V418.014H493.868V404.014ZM95.2637 404.014L85.0273 394.463C77.2618 402.786 67.172 407.51 56.4111 407.51V421.51V435.51C75.7646 435.51 93.0329 426.926 105.5 413.564L95.2637 404.014ZM56.4111 421.51L56.4112 407.51C34.524 407.51 14 386.923 14 357.886H0H-14C-14 399.125 15.9882 435.51 56.4111 435.51L56.4111 421.51ZM0 357.886L14 357.886C14.0001 328.848 34.524 308.262 56.4112 308.262L56.4111 294.262L56.4111 280.262C15.9883 280.262 -13.9999 316.646 -14 357.886L0 357.886ZM56.4111 294.262V308.262C67.1722 308.262 77.2625 312.986 85.0281 321.309L95.2646 311.759L105.501 302.208C93.034 288.846 75.7651 280.262 56.4111 280.262V294.262ZM95.2646 311.759V325.759H493.333V311.759V297.759H95.2646V311.759ZM493.333 311.759L507.333 311.678L506.19 114.442L492.19 114.523L478.191 114.605L479.333 311.84L493.333 311.759ZM492.19 114.523L504.786 108.413L484.337 66.2613L471.741 72.3721L459.145 78.4828L479.594 120.634L492.19 114.523ZM471.741 72.3721L484.23 78.6996L492.692 61.9984L480.203 55.6709L467.715 49.3434L459.253 66.0446L471.741 72.3721ZM480.203 55.6709V69.6709H580.333V55.6709V41.6709H480.203V55.6709ZM580.333 55.6709L568.06 62.4072L577.227 79.1084L589.5 72.3721L601.773 65.6357L592.606 48.9346L580.333 55.6709Z" fill="white" mask="url(#path-1-inside-1_73_27)"/>
<path d="M714.435 357.861H1007.71V710.916C1002.08 713.582 905.294 652.581 855.275 602.489C770.092 517.181 704.165 358.019 714.435 357.861Z" fill="#BF1F1F"/>
<path d="M714.435 357.861H1007.71V710.916C1002.08 713.582 905.294 652.581 855.275 602.489C770.092 517.181 704.165 358.019 714.435 357.861Z" fill="#BF1F1F"/>
<path d="M1300.49 357.861H1007.21V710.916C1012.85 713.582 1109.63 652.581 1159.65 602.489C1244.83 517.181 1310.76 358.019 1300.49 357.861Z" fill="white"/>
<path d="M1300.49 357.861H1007.21V710.916C1012.85 713.582 1109.63 652.581 1159.65 602.489C1244.83 517.181 1310.76 358.019 1300.49 357.861Z" fill="white"/>
<path d="M697.99 126.587C800.356 112.302 826.701 98.1529 861.475 70.504C936.458 14.2041 963.684 6.25559 1007.29 0V357.861H713.455C689.017 260.958 678.761 177.751 697.99 126.587Z" fill="white"/>
<path d="M1317.01 126.587C1214.64 112.302 1188.3 98.1529 1153.53 70.504C1078.54 14.2041 1051.32 6.25559 1007.71 0V357.861H1301.55C1325.98 260.958 1336.24 177.751 1317.01 126.587Z" fill="#BF1F1F"/>
</svg>
