<svg width="720" height="740" viewBox="0 0 720 740" fill="none" xmlns="http://www.w3.org/2000/svg">
<path d="M166.595 244.784C166.595 244.784 64.7215 192.85 36.4985 258.362C-2.41454 348.687 34.0968 419.245 77.8556 503.808C82.2785 512.355 86.7753 521.046 91.2758 529.914C135.599 617.252 255.608 720 255.608 720H556.883C556.883 720 598.058 664.147 618.508 624.957C654.646 555.703 665.673 511.515 680.132 434.87L680.132 353.405L680.132 142.952C680.132 142.952 673.285 68.2755 563.731 102.22M166.595 244.784C166.595 244.784 166.595 54.6989 200.831 47.9091C200.831 47.9091 303.538 13.9662 303.538 68.2755M166.595 244.784V333.039M303.538 68.2755C303.538 68.2755 358.316 -40.3442 433.634 68.2755M303.538 68.2755C303.538 145.16 303.538 237.995 303.538 237.995M433.634 68.2755C433.634 27.5438 563.731 20.7537 563.731 102.22M433.634 68.2755C433.634 109.007 433.634 244.784 433.634 244.784M563.731 102.22C563.731 183.685 563.731 265.151 563.731 265.151" stroke="white" stroke-width="40"/>
<line y1="-20" x2="830.296" y2="-20" transform="matrix(0.720756 -0.693189 0.720756 0.693189 121.559 709.505)" stroke="white" stroke-width="40"/>
<line y1="-20" x2="830.296" y2="-20" transform="matrix(0.720756 0.693189 -0.720756 0.693189 53.853 133.953)" stroke="white" stroke-width="40"/>
</svg>
