<svg width="53" height="46" viewBox="0 0 53 46" fill="none" xmlns="http://www.w3.org/2000/svg">
<path d="M38.3458 27.3516L45.4493 2.54974M38.3458 27.3516L43.9922 7.6373M38.3458 27.3516L22.8841 27.3172M45.4493 2.54974L52.3913 2.56518M45.4493 2.54974L43.9922 7.6373M43.9922 7.6373L3.80876 7.54787L7.42244 27.2828L22.8841 27.3172M22.8982 33.6808L22.8841 27.3172M22.8982 33.6808C22.8982 33.6808 30.5304 33.6977 35.4208 33.7086M22.8982 33.6808C22.8982 33.6808 15.5297 33.6644 10.8083 33.6538M35.4208 33.7086C38.0352 33.8902 40.0181 36.1738 39.8496 38.8093C39.6928 41.2636 37.8816 43.2594 35.4419 43.254C33.0021 43.2485 31.1821 41.2447 31.0144 38.7896C30.8343 36.1534 32.8071 33.8785 35.4208 33.7086ZM10.8083 33.6538C13.4228 33.8354 15.4056 36.119 15.2372 38.7545C15.0803 41.2089 13.2692 43.2046 10.8294 43.1992C8.38963 43.1937 6.56967 41.1899 6.40196 38.7349C6.22187 36.0986 8.19468 33.8238 10.8083 33.6538Z" stroke="white" stroke-width="5"/>
</svg>
