<svg width="60" height="56" viewBox="0 0 60 56" fill="none" xmlns="http://www.w3.org/2000/svg">
<path d="M49.2308 24.808V41.5135L30 53M49.2308 24.808L36.4103 32.7297L30 29.3514M49.2308 24.808L55 21.2432L49.2308 17.8649M10.7692 24.808V41.5135L30 53M30 53L30 29.3514M30 29.3514L23.5897 32.7297L5 21.2432L10.7692 17.8649M30 29.3514L10.7692 17.8649M30 29.3514L49.2308 17.8649M30 29.3514V6.37838M10.7692 17.8649L5 14.4865L24.2308 3L26.7949 4.35135L30 6.37838M10.7692 17.8649L30 6.37838M30 6.37838L49.2308 17.8649M30 6.37838L35.7692 3L55 14.4865L49.2308 17.8649" stroke="white" stroke-width="5"/>
</svg>
