<svg width="45" height="49" viewBox="0 0 45 49" fill="none" xmlns="http://www.w3.org/2000/svg">
<path d="M11.6607 16.8082C11.6607 16.8082 5.6421 13.6179 3.97472 17.6422C1.67577 23.1908 3.83283 27.5251 6.41806 32.7197C6.67935 33.2447 6.94502 33.7785 7.21091 34.3233C9.82951 39.6883 16.9195 46 16.9195 46H34.7186C34.7186 46 37.1511 42.569 38.3593 40.1616C40.4943 35.9074 41.1458 33.1931 42 28.4849L42 23.4806L42 10.5528C42 10.5528 41.5955 5.9655 35.1231 8.05063M11.6607 16.8082C11.6607 16.8082 11.6607 5.13151 13.6833 4.71442C13.6833 4.71442 19.7512 2.62935 19.7512 5.96549M11.6607 16.8082V22.2295M19.7512 5.96549C19.7512 5.96549 22.9874 -0.706859 27.4371 5.9655M19.7512 5.96549C19.7512 10.6884 19.7512 16.3911 19.7512 16.3911M27.4371 5.9655C27.4371 3.4634 35.1231 3.0463 35.1231 8.05063M27.4371 5.9655C27.4371 8.46759 27.4371 16.8082 27.4371 16.8082M35.1231 8.05063C35.1231 13.055 35.1231 18.0592 35.1231 18.0592" stroke="white" stroke-width="5"/>
</svg>
