<svg width="897" height="956" viewBox="0 0 897 956" fill="none" xmlns="http://www.w3.org/2000/svg">
<g filter="url(#filter0_i_31_2)">
<ellipse cx="44.7302" cy="32.526" rx="44.7302" ry="32.526" transform="matrix(0.895495 -0.445071 0.465184 0.885214 230.292 251.877)" fill="#4C6EA1"/>
</g>
<path d="M277.707 255.57C199.441 81.3252 341.537 53.7675 359.374 70.6757" stroke="white" stroke-width="5"/>
<path d="M303.891 328.346C305.85 320.678 306.886 316.365 311.969 309.423L315.201 312.577C315.201 312.577 324.895 284.192 342.667 270C349.13 292.077 372.328 304.475 421.835 326.769C423.976 316.416 427.067 311.738 434.76 304.692C434.76 318.884 476.767 339.384 479.999 361.461L391.137 393L307.122 393L303.891 386.692C302.629 382.997 301.921 380.926 300.66 377.231C299.326 372.061 298.839 368.796 299.044 361.461C299.676 354.294 300.03 350.607 300.66 345.692C301.433 340.714 301.983 337.495 303.891 328.346Z" fill="black"/>
<path d="M731.999 592.707C731.999 723.208 606.143 829 450.892 829C295.642 829 172.999 759.683 172.999 629.182C172.999 498.681 271.547 358 426.798 358C582.048 358 731.999 462.206 731.999 592.707Z" fill="#FED4A5"/>
<ellipse cx="545.999" cy="582" rx="93" ry="81" fill="#EFB87A"/>
<rect x="2.37258" y="323.358" width="754" height="644" rx="322" transform="rotate(-12.0171 2.37258 323.358)" fill="white" fill-opacity="0.2"/>
<rect x="2.37258" y="323.358" width="754" height="644" rx="322" transform="rotate(-12.0171 2.37258 323.358)" stroke="white" stroke-width="4"/>
<mask id="path-7-inside-1_31_2" fill="white">
<rect width="168.739" height="241.826" rx="5" transform="matrix(0.991411 -0.130785 0.121042 0.992647 544.09 625.962)"/>
</mask>
<g filter="url(#filter2_i_31_2)">
<rect width="168.739" height="241.826" rx="5" transform="matrix(0.991411 -0.130785 0.121042 0.992647 544.09 625.962)" fill="#FF544F"/>
</g>
<rect width="168.739" height="241.826" rx="5" transform="matrix(0.991411 -0.130785 0.121042 0.992647 544.09 625.962)" stroke="black" stroke-width="20" mask="url(#path-7-inside-1_31_2)"/>
<mask id="path-8-inside-2_31_2" fill="white">
<rect width="169.209" height="241.2" rx="5" transform="matrix(0.953769 0.300542 -0.279651 0.960102 658.253 593.736)"/>
</mask>
<g filter="url(#filter3_i_31_2)">
<rect width="169.209" height="241.2" rx="5" transform="matrix(0.953769 0.300542 -0.279651 0.960102 658.253 593.736)" fill="#4389FF"/>
</g>
<rect width="169.209" height="241.2" rx="5" transform="matrix(0.953769 0.300542 -0.279651 0.960102 658.253 593.736)" stroke="black" stroke-width="20" mask="url(#path-8-inside-2_31_2)"/>
<mask id="path-9-inside-3_31_2" fill="white">
<rect width="167.871" height="243.079" rx="5" transform="matrix(0.79311 0.609078 -0.600746 0.79944 763.177 612.026)"/>
</mask>
<g filter="url(#filter4_i_31_2)">
<rect width="167.871" height="243.079" rx="5" transform="matrix(0.79311 0.609078 -0.600746 0.79944 763.177 612.026)" fill="#FEC743"/>
</g>
<rect width="167.871" height="243.079" rx="5" transform="matrix(0.79311 0.609078 -0.600746 0.79944 763.177 612.026)" stroke="black" stroke-width="20" mask="url(#path-9-inside-3_31_2)"/>
<g filter="url(#filter5_d_31_2)">
<circle cx="366" cy="75" r="10" fill="white" fill-opacity="0.97" shape-rendering="crispEdges"/>
</g>
<g filter="url(#filter6_d_31_2)">
<path d="M541.396 838.123C591.057 795.723 605.926 789.86 621.604 794.364C665.674 793.56 681.686 781.408 709.162 758.275C736.638 735.142 836.438 842.129 836.438 842.129C839.725 843.446 837.913 849.398 830.119 866.542C823.028 873.101 818.104 875.675 806.65 877.157C802.886 885.509 802.647 887.507 803.039 889.894C800.391 892.798 798.754 893.577 794.915 889.894C788.751 899.577 782.331 899.274 772.349 901.57C757.987 908.316 752.157 907.877 740.755 909H696.525C662.857 906.167 659.528 904.525 660.419 901.57C647.124 908.882 631.975 903.747 610.772 901.57L583.692 896.263L557.367 883.879L529.628 866.542C527.333 852.418 531.327 846.818 541.396 838.123Z" fill="#593429"/>
</g>
<path d="M845.336 612.206C846.343 626.165 846.331 633.857 843.986 647.034C839.277 666.505 835.778 673.627 829.749 687.262L815.347 676.69C823.672 668.505 828.479 661.845 837.399 644.866C842.45 630.396 843.434 623.908 845.336 612.206Z" fill="#FEC743"/>
<g filter="url(#filter7_i_31_2)">
<ellipse cx="10.4768" cy="12.8177" rx="10.4768" ry="12.8177" transform="matrix(0.990503 0.137493 -0.151348 0.988481 836.571 598)" fill="#FFE8B0"/>
</g>
<path d="M846.873 599.934C852.242 600.68 855.935 606.659 854.89 613.482C853.846 620.304 848.513 625.032 843.144 624.286C837.775 623.541 834.082 617.561 835.127 610.738C836.172 603.916 841.504 599.189 846.873 599.934Z" stroke="black"/>
<defs>
<filter id="filter0_i_31_2" x="239.648" y="207.753" width="88.6594" height="88.0161" filterUnits="userSpaceOnUse" color-interpolation-filters="sRGB">
<feFlood flood-opacity="0" result="BackgroundImageFix"/>
<feBlend mode="normal" in="SourceGraphic" in2="BackgroundImageFix" result="shape"/>
<feColorMatrix in="SourceAlpha" type="matrix" values="0 0 0 0 0 0 0 0 0 0 0 0 0 0 0 0 0 0 127 0" result="hardAlpha"/>
<feMorphology radius="17" operator="erode" in="SourceAlpha" result="effect1_innerShadow_31_2"/>
<feOffset dx="-3" dy="-18"/>
<feGaussianBlur stdDeviation="1.9"/>
<feComposite in2="hardAlpha" operator="arithmetic" k2="-1" k3="1"/>
<feColorMatrix type="matrix" values="0 0 0 0 0 0 0 0 0 0 0 0 0 0 0 0 0 0 0.25 0"/>
<feBlend mode="normal" in2="shape" result="effect1_innerShadow_31_2"/>
</filter>
<filter id="filter2_i_31_2" x="544.658" y="595.904" width="195.426" height="269.496" filterUnits="userSpaceOnUse" color-interpolation-filters="sRGB">
<feFlood flood-opacity="0" result="BackgroundImageFix"/>
<feBlend mode="normal" in="SourceGraphic" in2="BackgroundImageFix" result="shape"/>
<feColorMatrix in="SourceAlpha" type="matrix" values="0 0 0 0 0 0 0 0 0 0 0 0 0 0 0 0 0 0 127 0" result="hardAlpha"/>
<feOffset dy="-72"/>
<feGaussianBlur stdDeviation="4.3"/>
<feComposite in2="hardAlpha" operator="arithmetic" k2="-1" k3="1"/>
<feColorMatrix type="matrix" values="0 0 0 0 0 0 0 0 0 0 0 0 0 0 0 0 0 0 0.25 0"/>
<feBlend mode="normal" in2="shape" result="effect1_innerShadow_31_2"/>
</filter>
<filter id="filter3_i_31_2" x="591.997" y="585.908" width="235.546" height="288.988" filterUnits="userSpaceOnUse" color-interpolation-filters="sRGB">
<feFlood flood-opacity="0" result="BackgroundImageFix"/>
<feBlend mode="normal" in="SourceGraphic" in2="BackgroundImageFix" result="shape"/>
<feColorMatrix in="SourceAlpha" type="matrix" values="0 0 0 0 0 0 0 0 0 0 0 0 0 0 0 0 0 0 127 0" result="hardAlpha"/>
<feOffset dx="17" dy="-45"/>
<feGaussianBlur stdDeviation="4.55"/>
<feComposite in2="hardAlpha" operator="arithmetic" k2="-1" k3="1"/>
<feColorMatrix type="matrix" values="0 0 0 0 0 0 0 0 0 0 0 0 0 0 0 0 0 0 0.25 0"/>
<feBlend mode="normal" in2="shape" result="effect1_innerShadow_31_2"/>
</filter>
<filter id="filter4_i_31_2" x="619.143" y="614.043" width="275.18" height="292.539" filterUnits="userSpaceOnUse" color-interpolation-filters="sRGB">
<feFlood flood-opacity="0" result="BackgroundImageFix"/>
<feBlend mode="normal" in="SourceGraphic" in2="BackgroundImageFix" result="shape"/>
<feColorMatrix in="SourceAlpha" type="matrix" values="0 0 0 0 0 0 0 0 0 0 0 0 0 0 0 0 0 0 127 0" result="hardAlpha"/>
<feMorphology radius="25" operator="dilate" in="SourceAlpha" result="effect1_innerShadow_31_2"/>
<feOffset dx="37" dy="-55"/>
<feGaussianBlur stdDeviation="6.15"/>
<feComposite in2="hardAlpha" operator="arithmetic" k2="-1" k3="1"/>
<feColorMatrix type="matrix" values="0 0 0 0 0 0 0 0 0 0 0 0 0 0 0 0 0 0 0.25 0"/>
<feBlend mode="normal" in2="shape" result="effect1_innerShadow_31_2"/>
</filter>
<filter id="filter5_d_31_2" x="299.7" y="0.700001" width="148.6" height="148.6" filterUnits="userSpaceOnUse" color-interpolation-filters="sRGB">
<feFlood flood-opacity="0" result="BackgroundImageFix"/>
<feColorMatrix in="SourceAlpha" type="matrix" values="0 0 0 0 0 0 0 0 0 0 0 0 0 0 0 0 0 0 127 0" result="hardAlpha"/>
<feMorphology radius="46" operator="dilate" in="SourceAlpha" result="effect1_dropShadow_31_2"/>
<feOffset dx="8"/>
<feGaussianBlur stdDeviation="9.15"/>
<feComposite in2="hardAlpha" operator="out"/>
<feColorMatrix type="matrix" values="0 0 0 0 1 0 0 0 0 0 0 0 0 0 0 0 0 0 0.25 0"/>
<feBlend mode="normal" in2="BackgroundImageFix" result="effect1_dropShadow_31_2"/>
<feBlend mode="normal" in="SourceGraphic" in2="effect1_dropShadow_31_2" result="shape"/>
</filter>
<filter id="filter6_d_31_2" x="517.999" y="755" width="320" height="165" filterUnits="userSpaceOnUse" color-interpolation-filters="sRGB">
<feFlood flood-opacity="0" result="BackgroundImageFix"/>
<feColorMatrix in="SourceAlpha" type="matrix" values="0 0 0 0 0 0 0 0 0 0 0 0 0 0 0 0 0 0 127 0" result="hardAlpha"/>
<feOffset dx="-7" dy="7"/>
<feGaussianBlur stdDeviation="2"/>
<feComposite in2="hardAlpha" operator="out"/>
<feColorMatrix type="matrix" values="0 0 0 0 0 0 0 0 0 0 0 0 0 0 0 0 0 0 0.25 0"/>
<feBlend mode="normal" in2="BackgroundImageFix" result="effect1_dropShadow_31_2"/>
<feBlend mode="normal" in="SourceGraphic" in2="effect1_dropShadow_31_2" result="shape"/>
</filter>
<filter id="filter7_i_31_2" x="834.45" y="597.357" width="21.1178" height="27.5057" filterUnits="userSpaceOnUse" color-interpolation-filters="sRGB">
<feFlood flood-opacity="0" result="BackgroundImageFix"/>
<feBlend mode="normal" in="SourceGraphic" in2="BackgroundImageFix" result="shape"/>
<feColorMatrix in="SourceAlpha" type="matrix" values="0 0 0 0 0 0 0 0 0 0 0 0 0 0 0 0 0 0 127 0" result="hardAlpha"/>
<feMorphology radius="2" operator="dilate" in="SourceAlpha" result="effect1_innerShadow_31_2"/>
<feOffset dy="-2"/>
<feGaussianBlur stdDeviation="3.9"/>
<feComposite in2="hardAlpha" operator="arithmetic" k2="-1" k3="1"/>
<feColorMatrix type="matrix" values="0 0 0 0 0 0 0 0 0 0 0 0 0 0 0 0 0 0 0.25 0"/>
<feBlend mode="normal" in2="shape" result="effect1_innerShadow_31_2"/>
</filter>
</defs>
</svg>
